# xmcd
#
# Track frame offsets: 
#        150
#        14037
#        31962
#        50187
#        63036
#        80601
#        93607
#        108595
#        127067
#        139583
#        152370
#        169198
#        182363
#        194814
#        210844
#        224879
#        243145
#        258354
#        271164
#        287566
#        304296
#        318311
#        333972
#        343954
#
# Disc length: 4765 seconds
#
# Revision: 0
# Processed by: cddbd v1.5.2PL0 Copyright (c) Steve Scherf et al.
# Submitted via: ExactAudioCopy v1.3
#
DISCID=6a129b18
DTITLE=Various Artist - Americana Music Month Sampler
DYEAR=2019
DGENRE=Americana
TTITLE0=Michaela Anne - I'm Not the Fire
TTITLE1=Orville Peck - Dead of Night
TTITLE2=Lillie Mae - You've Got Other Girls for That
TTITLE3=Jack Klatt - Ramblin' Kind
TTITLE4=Our Native Daughters - Black Myself
TTITLE5=Mapache - Follow You Down
TTITLE6=The Milk Carton Kids - A Sea of Roses
TTITLE7=Daniel Norgen - Rolling Rolling Rolling
TTITLE8=Esther Rose - Handyman
TTITLE9=Jade Jackson - Bottle It Up
TTITLE10=Jonah Tolchin - White Toyota Ranger
TTITLE11=Birdie Busch - He Was Looking
TTITLE12=The Cactus Blossoms - Desperado
TTITLE13=The Ballroom Thieves - Muddy Waters
TTITLE14=Daddy Long Legs - Mornin' Noon and Nite
TTITLE15=Jeremy Ivey - Diamonds Back to Coal
TTITLE16=Jim Lauderdale - The Secrets of the Pyramids
TTITLE17=King Garbage - Forbidden Lovers
TTITLE18=Eilen Jewell - Crawl
TTITLE19=Adam Wakefield - Breaking Strings
TTITLE20=Steep Canyon Rangers with The Asheville Symphony feat. Boyz I
TTITLE20=I Men - Be Still Moses
TTITLE21=Sean McConnell feat. The McCrary Sisters - Shaky Bridges
TTITLE22=Tami Neilson - Hey Bus Driver!
TTITLE23=Darren Bradbury - Talking Dogs and Atom Bombs
EXTD=
EXTT0=
EXTT1=
EXTT2=
EXTT3=
EXTT4=
EXTT5=
EXTT6=
EXTT7=
EXTT8=
EXTT9=
EXTT10=
EXTT11=
EXTT12=
EXTT13=
EXTT14=
EXTT15=
EXTT16=
EXTT17=
EXTT18=
EXTT19=
EXTT20=
EXTT21=
EXTT22=
EXTT23=
PLAYORDER=
